<mxfile host="Electron" modified="2024-02-07T04:27:09.518Z" agent="Mozilla/5.0 (X11; Linux x86_64) AppleWebKit/537.36 (KHTML, like Gecko) draw.io/22.1.21 Chrome/120.0.6099.109 Electron/28.1.0 Safari/537.36" etag="LnYc9dnKufzNIJ6tOgcm" version="22.1.21" type="device">
  <diagram name="Page-1" id="BeeQXuH5mpLVNXQqc5U8">
    <mxGraphModel dx="831" dy="1067" grid="0" gridSize="10" guides="1" tooltips="1" connect="1" arrows="1" fold="1" page="1" pageScale="1" pageWidth="850" pageHeight="1100" math="0" shadow="0">
      <root>
        <mxCell id="0" />
        <mxCell id="1" parent="0" />
        <mxCell id="66zhnWMjhhO7CBgq-leG-1" value="" style="edgeStyle=orthogonalEdgeStyle;shape=connector;curved=0;rounded=1;orthogonalLoop=1;jettySize=auto;html=1;labelBackgroundColor=default;strokeColor=#666666;strokeWidth=3;align=center;verticalAlign=middle;fontFamily=Helvetica;fontSize=12;fontColor=#666666;endArrow=openThin;endFill=0;fillColor=#FAE5C7;" edge="1" parent="1">
          <mxGeometry relative="1" as="geometry">
            <mxPoint x="260" y="1325.034482758621" as="sourcePoint" />
          </mxGeometry>
        </mxCell>
        <mxCell id="66zhnWMjhhO7CBgq-leG-2" value="" style="edgeStyle=orthogonalEdgeStyle;shape=connector;curved=0;rounded=1;orthogonalLoop=1;jettySize=auto;html=1;labelBackgroundColor=default;strokeColor=#666666;strokeWidth=3;align=center;verticalAlign=middle;fontFamily=Helvetica;fontSize=12;fontColor=#666666;endArrow=openThin;endFill=0;fillColor=#FAE5C7;" edge="1" parent="1">
          <mxGeometry relative="1" as="geometry">
            <mxPoint x="288.3800000000001" y="1445" as="targetPoint" />
          </mxGeometry>
        </mxCell>
        <mxCell id="66zhnWMjhhO7CBgq-leG-156" value="" style="group;fillColor=#232136;strokeColor=#232136;strokeWidth=25;container=0;" vertex="1" connectable="0" parent="1">
          <mxGeometry x="1148" y="50" width="642" height="540" as="geometry" />
        </mxCell>
        <mxCell id="66zhnWMjhhO7CBgq-leG-3" value="Start" style="ellipse;whiteSpace=wrap;html=1;aspect=fixed;strokeColor=#DB918D;fontColor=#FFFFFF;fillColor=none;strokeWidth=3;container=0;" vertex="1" parent="1">
          <mxGeometry x="1246" y="79.80999999999995" width="50" height="50" as="geometry" />
        </mxCell>
        <mxCell id="66zhnWMjhhO7CBgq-leG-4" value="Sleep for use defined interval" style="rounded=1;whiteSpace=wrap;html=1;strokeColor=#DB918D;fontColor=#FFFFFF;fillColor=none;strokeWidth=3;container=0;" vertex="1" parent="1">
          <mxGeometry x="1337.56" y="84.80999999999995" width="122.44" height="40" as="geometry" />
        </mxCell>
        <mxCell id="66zhnWMjhhO7CBgq-leG-5" style="edgeStyle=orthogonalEdgeStyle;shape=connector;curved=0;rounded=1;orthogonalLoop=1;jettySize=auto;html=1;labelBackgroundColor=default;strokeColor=#DB918D;strokeWidth=3;align=center;verticalAlign=middle;fontFamily=Helvetica;fontSize=12;fontColor=#FFFFFF;endArrow=openThin;endFill=0;fillColor=#FAE5C7;" edge="1" parent="1" source="66zhnWMjhhO7CBgq-leG-3" target="66zhnWMjhhO7CBgq-leG-4">
          <mxGeometry relative="1" as="geometry" />
        </mxCell>
        <mxCell id="66zhnWMjhhO7CBgq-leG-6" value="Check next location" style="rounded=1;whiteSpace=wrap;html=1;strokeColor=#DB918D;fontColor=#FFFFFF;fillColor=none;strokeWidth=3;container=0;" vertex="1" parent="1">
          <mxGeometry x="1505" y="167.80999999999995" width="120" height="30" as="geometry" />
        </mxCell>
        <mxCell id="66zhnWMjhhO7CBgq-leG-7" value="Child Locations or &lt;br&gt;data requirements" style="rhombus;whiteSpace=wrap;html=1;rounded=0;strokeColor=#DB918D;strokeWidth=3;align=center;verticalAlign=middle;fontFamily=Helvetica;fontSize=11;fontColor=#FFFFFF;fillColor=none;spacingTop=-1;container=0;" vertex="1" parent="1">
          <mxGeometry x="1331.04" y="142.80999999999995" width="138.06" height="80" as="geometry" />
        </mxCell>
        <mxCell id="66zhnWMjhhO7CBgq-leG-8" value="" style="edgeStyle=orthogonalEdgeStyle;shape=connector;curved=0;rounded=1;orthogonalLoop=1;jettySize=auto;html=1;labelBackgroundColor=default;strokeColor=#DB918D;strokeWidth=3;align=center;verticalAlign=middle;fontFamily=Helvetica;fontSize=12;fontColor=#FFFFFF;endArrow=openThin;endFill=0;fillColor=#FAE5C7;" edge="1" parent="1" source="66zhnWMjhhO7CBgq-leG-6">
          <mxGeometry relative="1" as="geometry">
            <mxPoint x="1473.0600000000002" y="182.80999999999995" as="targetPoint" />
          </mxGeometry>
        </mxCell>
        <mxCell id="66zhnWMjhhO7CBgq-leG-9" value="Data requirement" style="text;html=1;strokeColor=none;fillColor=none;align=left;verticalAlign=middle;whiteSpace=wrap;rounded=0;fontSize=12;fontFamily=Helvetica;fontColor=#FFFFFF;container=0;" vertex="1" parent="1">
          <mxGeometry x="1409.94" y="219.80999999999995" width="60.06" height="30" as="geometry" />
        </mxCell>
        <mxCell id="66zhnWMjhhO7CBgq-leG-10" style="edgeStyle=orthogonalEdgeStyle;shape=connector;curved=0;rounded=1;orthogonalLoop=1;jettySize=auto;html=1;exitX=0.5;exitY=0;exitDx=0;exitDy=0;entryX=0;entryY=0.5;entryDx=0;entryDy=0;labelBackgroundColor=default;strokeColor=#DB918D;strokeWidth=3;align=center;verticalAlign=middle;fontFamily=Helvetica;fontSize=12;fontColor=#FFFFFF;endArrow=openThin;endFill=0;fillColor=#FAE5C7;" edge="1" parent="1" source="66zhnWMjhhO7CBgq-leG-11" target="66zhnWMjhhO7CBgq-leG-7">
          <mxGeometry relative="1" as="geometry" />
        </mxCell>
        <mxCell id="66zhnWMjhhO7CBgq-leG-11" value="Check next child location." style="rounded=1;whiteSpace=wrap;html=1;strokeColor=#DB918D;fontColor=#FFFFFF;fillColor=none;strokeWidth=3;container=0;" vertex="1" parent="1">
          <mxGeometry x="1176" y="214.80999999999995" width="120" height="40" as="geometry" />
        </mxCell>
        <mxCell id="66zhnWMjhhO7CBgq-leG-12" style="edgeStyle=orthogonalEdgeStyle;shape=connector;curved=0;rounded=1;orthogonalLoop=1;jettySize=auto;html=1;labelBackgroundColor=default;strokeColor=#DB918D;strokeWidth=3;align=center;verticalAlign=middle;fontFamily=Helvetica;fontSize=12;fontColor=#FFFFFF;endArrow=openThin;endFill=0;fillColor=#FAE5C7;exitX=0.5;exitY=1;exitDx=0;exitDy=0;" edge="1" parent="1" source="66zhnWMjhhO7CBgq-leG-7" target="66zhnWMjhhO7CBgq-leG-11">
          <mxGeometry relative="1" as="geometry">
            <Array as="points">
              <mxPoint x="1400" y="232.80999999999995" />
            </Array>
          </mxGeometry>
        </mxCell>
        <mxCell id="66zhnWMjhhO7CBgq-leG-13" value="Data requirements &lt;br&gt;left to check?" style="rhombus;whiteSpace=wrap;html=1;rounded=0;strokeColor=#DB918D;strokeWidth=3;align=center;verticalAlign=middle;fontFamily=Helvetica;fontSize=11;fontColor=#FFFFFF;fillColor=none;spacingTop=4;container=0;" vertex="1" parent="1">
          <mxGeometry x="1335.97" y="252.80999999999995" width="128.06" height="80" as="geometry" />
        </mxCell>
        <mxCell id="66zhnWMjhhO7CBgq-leG-14" value="" style="edgeStyle=orthogonalEdgeStyle;shape=connector;curved=0;rounded=1;orthogonalLoop=1;jettySize=auto;html=1;labelBackgroundColor=default;strokeColor=#DB918D;strokeWidth=3;align=center;verticalAlign=middle;fontFamily=Helvetica;fontSize=12;fontColor=#FFFFFF;endArrow=openThin;endFill=0;fillColor=#FAE5C7;" edge="1" parent="1" source="66zhnWMjhhO7CBgq-leG-7" target="66zhnWMjhhO7CBgq-leG-13">
          <mxGeometry relative="1" as="geometry">
            <mxPoint x="1400" y="252.80999999999995" as="targetPoint" />
            <Array as="points">
              <mxPoint x="1400" y="242.80999999999995" />
              <mxPoint x="1400" y="242.80999999999995" />
            </Array>
          </mxGeometry>
        </mxCell>
        <mxCell id="66zhnWMjhhO7CBgq-leG-15" value="Child locations" style="text;html=1;strokeColor=none;fillColor=none;align=center;verticalAlign=middle;whiteSpace=wrap;rounded=0;fontSize=12;fontFamily=Helvetica;fontColor=#FFFFFF;container=0;" vertex="1" parent="1">
          <mxGeometry x="1303.65" y="217.30999999999995" width="86.35" height="15" as="geometry" />
        </mxCell>
        <mxCell id="66zhnWMjhhO7CBgq-leG-16" value="No" style="text;html=1;strokeColor=none;fillColor=none;align=center;verticalAlign=middle;whiteSpace=wrap;rounded=0;fontSize=12;fontFamily=Helvetica;fontColor=#FFFFFF;container=0;" vertex="1" parent="1">
          <mxGeometry x="1443.81" y="267.80999999999995" width="36.25" height="20" as="geometry" />
        </mxCell>
        <mxCell id="66zhnWMjhhO7CBgq-leG-17" value="Yes" style="text;html=1;strokeColor=none;fillColor=none;align=center;verticalAlign=middle;whiteSpace=wrap;rounded=0;fontSize=12;fontFamily=Helvetica;fontColor=#FFFFFF;container=0;" vertex="1" parent="1">
          <mxGeometry x="1390" y="322.80999999999995" width="60" height="30" as="geometry" />
        </mxCell>
        <mxCell id="66zhnWMjhhO7CBgq-leG-18" value="Check component&#39;s last readings. Set to &lt;i&gt;Fault&lt;/i&gt; all where &lt;b&gt;timeout&lt;/b&gt; has exceded" style="rounded=1;whiteSpace=wrap;html=1;strokeColor=#DB918D;fontColor=#FFFFFF;fillColor=none;strokeWidth=3;container=0;" vertex="1" parent="1">
          <mxGeometry x="1185.75" y="340.05999999999995" width="120" height="65.5" as="geometry" />
        </mxCell>
        <mxCell id="66zhnWMjhhO7CBgq-leG-19" value="Count number of &lt;i&gt;Coherent&lt;/i&gt; components." style="rounded=1;whiteSpace=wrap;html=1;strokeColor=#DB918D;fontColor=#FFFFFF;fillColor=none;strokeWidth=3;container=0;" vertex="1" parent="1">
          <mxGeometry x="1185.75" y="432.42999999999995" width="120" height="53.38" as="geometry" />
        </mxCell>
        <mxCell id="66zhnWMjhhO7CBgq-leG-20" value="" style="edgeStyle=orthogonalEdgeStyle;shape=connector;curved=0;rounded=1;orthogonalLoop=1;jettySize=auto;html=1;labelBackgroundColor=default;strokeColor=#DB918D;strokeWidth=3;align=center;verticalAlign=middle;fontFamily=Helvetica;fontSize=12;fontColor=#FFFFFF;endArrow=openThin;endFill=0;fillColor=#FAE5C7;exitX=0.5;exitY=1;exitDx=0;exitDy=0;entryX=0.5;entryY=0;entryDx=0;entryDy=0;" edge="1" parent="1" source="66zhnWMjhhO7CBgq-leG-18" target="66zhnWMjhhO7CBgq-leG-19">
          <mxGeometry relative="1" as="geometry">
            <mxPoint x="1245.8275862068965" y="409.30999999999995" as="sourcePoint" />
            <Array as="points">
              <mxPoint x="1246" y="423.80999999999995" />
              <mxPoint x="1246" y="423.80999999999995" />
            </Array>
          </mxGeometry>
        </mxCell>
        <mxCell id="66zhnWMjhhO7CBgq-leG-21" value="" style="edgeStyle=orthogonalEdgeStyle;shape=connector;curved=0;rounded=1;orthogonalLoop=1;jettySize=auto;html=1;labelBackgroundColor=default;strokeColor=#DB918D;strokeWidth=3;align=center;verticalAlign=middle;fontFamily=Helvetica;fontSize=12;fontColor=#FFFFFF;endArrow=openThin;endFill=0;fillColor=#FAE5C7;" edge="1" parent="1" source="66zhnWMjhhO7CBgq-leG-22" target="66zhnWMjhhO7CBgq-leG-18">
          <mxGeometry relative="1" as="geometry" />
        </mxCell>
        <mxCell id="66zhnWMjhhO7CBgq-leG-22" value="Check next &lt;br&gt;data requirement" style="rounded=1;whiteSpace=wrap;html=1;strokeColor=#DB918D;fontColor=#FFFFFF;fillColor=none;strokeWidth=3;container=0;" vertex="1" parent="1">
          <mxGeometry x="1340" y="352.80999999999995" width="120" height="40" as="geometry" />
        </mxCell>
        <mxCell id="66zhnWMjhhO7CBgq-leG-23" style="edgeStyle=orthogonalEdgeStyle;shape=connector;curved=0;rounded=1;orthogonalLoop=1;jettySize=auto;html=1;labelBackgroundColor=default;strokeColor=#DB918D;strokeWidth=3;align=center;verticalAlign=middle;fontFamily=Helvetica;fontSize=12;fontColor=#FFFFFF;endArrow=openThin;endFill=0;fillColor=#FAE5C7;" edge="1" parent="1" source="66zhnWMjhhO7CBgq-leG-13" target="66zhnWMjhhO7CBgq-leG-22">
          <mxGeometry relative="1" as="geometry">
            <mxPoint x="1399.952380952381" y="342.78559874577513" as="sourcePoint" />
            <mxPoint x="1400" y="383.80999999999995" as="targetPoint" />
          </mxGeometry>
        </mxCell>
        <mxCell id="66zhnWMjhhO7CBgq-leG-26" value="&lt;i&gt;Coherent&lt;/i&gt; &lt;b&gt;count&lt;/b&gt;&lt;br&gt;is greater or equal &lt;br&gt;to needed?" style="rhombus;whiteSpace=wrap;html=1;rounded=0;strokeColor=#DB918D;strokeWidth=3;align=center;verticalAlign=middle;fontFamily=Helvetica;fontSize=11;fontColor=#FFFFFF;fillColor=none;spacingTop=5;container=0;" vertex="1" parent="1">
          <mxGeometry x="1330.13" y="419.1199999999999" width="139.87" height="80" as="geometry" />
        </mxCell>
        <mxCell id="66zhnWMjhhO7CBgq-leG-27" style="edgeStyle=orthogonalEdgeStyle;shape=connector;curved=0;rounded=1;orthogonalLoop=1;jettySize=auto;html=1;labelBackgroundColor=default;strokeColor=#DB918D;strokeWidth=3;align=center;verticalAlign=middle;fontFamily=Helvetica;fontSize=12;fontColor=#FFFFFF;endArrow=openThin;endFill=0;fillColor=#FAE5C7;" edge="1" parent="1" source="66zhnWMjhhO7CBgq-leG-19" target="66zhnWMjhhO7CBgq-leG-26">
          <mxGeometry relative="1" as="geometry" />
        </mxCell>
        <mxCell id="66zhnWMjhhO7CBgq-leG-28" value="Yes" style="text;html=1;strokeColor=none;fillColor=none;align=center;verticalAlign=middle;whiteSpace=wrap;rounded=0;fontSize=12;fontFamily=Helvetica;fontColor=#FFFFFF;container=0;" vertex="1" parent="1">
          <mxGeometry x="1311.59" y="515.3599999999999" width="30" height="13.63" as="geometry" />
        </mxCell>
        <mxCell id="66zhnWMjhhO7CBgq-leG-29" value="No" style="text;html=1;strokeColor=none;fillColor=none;align=center;verticalAlign=middle;whiteSpace=wrap;rounded=0;fontSize=12;fontFamily=Helvetica;fontColor=#FFFFFF;container=0;" vertex="1" parent="1">
          <mxGeometry x="1319.76" y="557.1799999999998" width="13.65" height="10.62" as="geometry" />
        </mxCell>
        <mxCell id="66zhnWMjhhO7CBgq-leG-30" style="edgeStyle=orthogonalEdgeStyle;shape=connector;curved=0;rounded=1;orthogonalLoop=1;jettySize=auto;html=1;labelBackgroundColor=default;strokeColor=#DB918D;strokeWidth=3;align=center;verticalAlign=middle;fontFamily=Helvetica;fontSize=12;fontColor=#FFFFFF;endArrow=openThin;endFill=0;fillColor=#FAE5C7;entryX=0;entryY=0.5;entryDx=0;entryDy=0;exitX=0;exitY=0.5;exitDx=0;exitDy=0;" edge="1" parent="1" source="66zhnWMjhhO7CBgq-leG-35" target="66zhnWMjhhO7CBgq-leG-13">
          <mxGeometry relative="1" as="geometry">
            <Array as="points">
              <mxPoint x="1160" y="510.80999999999995" />
              <mxPoint x="1160" y="292.80999999999995" />
            </Array>
          </mxGeometry>
        </mxCell>
        <mxCell id="66zhnWMjhhO7CBgq-leG-31" style="edgeStyle=orthogonalEdgeStyle;shape=connector;curved=0;rounded=1;orthogonalLoop=1;jettySize=auto;html=1;entryX=0;entryY=0.5;entryDx=0;entryDy=0;labelBackgroundColor=default;strokeColor=#DB918D;strokeWidth=3;align=center;verticalAlign=middle;fontFamily=Helvetica;fontSize=12;fontColor=#FFFFFF;endArrow=openThin;endFill=0;fillColor=#FAE5C7;exitX=0;exitY=0.5;exitDx=0;exitDy=0;" edge="1" parent="1" source="66zhnWMjhhO7CBgq-leG-34" target="66zhnWMjhhO7CBgq-leG-13">
          <mxGeometry relative="1" as="geometry">
            <Array as="points">
              <mxPoint x="1160" y="555.81" />
              <mxPoint x="1160" y="292.80999999999995" />
            </Array>
          </mxGeometry>
        </mxCell>
        <mxCell id="66zhnWMjhhO7CBgq-leG-32" value="Are all &lt;b&gt;required&lt;/b&gt; &lt;br&gt;data requirements &lt;br&gt;&lt;i&gt;Coherent&lt;/i&gt;?" style="rhombus;whiteSpace=wrap;html=1;rounded=0;strokeColor=#DB918D;strokeWidth=3;align=center;verticalAlign=middle;fontFamily=Helvetica;fontSize=11;fontColor=#FFFFFF;fillColor=none;spacingTop=7;container=0;" vertex="1" parent="1">
          <mxGeometry x="1488.75" y="252.80999999999995" width="128.06" height="80" as="geometry" />
        </mxCell>
        <mxCell id="66zhnWMjhhO7CBgq-leG-33" style="edgeStyle=orthogonalEdgeStyle;shape=connector;curved=0;rounded=1;orthogonalLoop=1;jettySize=auto;html=1;labelBackgroundColor=default;strokeColor=#DB918D;strokeWidth=3;align=center;verticalAlign=middle;fontFamily=Helvetica;fontSize=12;fontColor=#FFFFFF;endArrow=openThin;endFill=0;fillColor=#FAE5C7;" edge="1" parent="1" source="66zhnWMjhhO7CBgq-leG-13" target="66zhnWMjhhO7CBgq-leG-32">
          <mxGeometry relative="1" as="geometry" />
        </mxCell>
        <mxCell id="66zhnWMjhhO7CBgq-leG-34" value="Set data requirement to&lt;i&gt; Fault&lt;/i&gt;" style="rounded=1;whiteSpace=wrap;html=1;strokeColor=#DB918D;fontColor=#FFFFFF;fillColor=none;strokeWidth=3;container=0;" vertex="1" parent="1">
          <mxGeometry x="1185.75" y="537.56" width="120" height="36.62" as="geometry" />
        </mxCell>
        <mxCell id="66zhnWMjhhO7CBgq-leG-25" style="edgeStyle=orthogonalEdgeStyle;shape=connector;curved=0;rounded=1;orthogonalLoop=1;jettySize=auto;html=1;exitX=0.5;exitY=1;exitDx=0;exitDy=0;entryX=1;entryY=0.5;entryDx=0;entryDy=0;labelBackgroundColor=default;strokeColor=#DB918D;strokeWidth=3;align=center;verticalAlign=middle;fontFamily=Helvetica;fontSize=12;fontColor=#FFFFFF;endArrow=openThin;endFill=0;fillColor=#FAE5C7;" edge="1" parent="1" source="66zhnWMjhhO7CBgq-leG-26" target="66zhnWMjhhO7CBgq-leG-34">
          <mxGeometry relative="1" as="geometry" />
        </mxCell>
        <mxCell id="66zhnWMjhhO7CBgq-leG-35" value="Set data requirement to &lt;i&gt;Coherent&lt;/i&gt;" style="rounded=1;whiteSpace=wrap;html=1;strokeColor=#DB918D;fontColor=#FFFFFF;fillColor=none;strokeWidth=3;container=0;" vertex="1" parent="1">
          <mxGeometry x="1185.75" y="491" width="120" height="40.37" as="geometry" />
        </mxCell>
        <mxCell id="66zhnWMjhhO7CBgq-leG-37" value="Set Location to &lt;i&gt;Fault&lt;/i&gt;" style="rounded=1;whiteSpace=wrap;html=1;strokeColor=#DB918D;fontColor=#FFFFFF;fillColor=none;strokeWidth=3;container=0;" vertex="1" parent="1">
          <mxGeometry x="1607.19" y="209.80999999999995" width="150" height="30" as="geometry" />
        </mxCell>
        <mxCell id="66zhnWMjhhO7CBgq-leG-24" style="edgeStyle=orthogonalEdgeStyle;shape=connector;curved=0;rounded=1;orthogonalLoop=1;jettySize=auto;html=1;exitX=0.5;exitY=1;exitDx=0;exitDy=0;labelBackgroundColor=default;strokeColor=#DB918D;strokeWidth=3;align=center;verticalAlign=middle;fontFamily=Helvetica;fontSize=12;fontColor=#FFFFFF;endArrow=openThin;endFill=0;fillColor=#FAE5C7;" edge="1" parent="1" source="66zhnWMjhhO7CBgq-leG-26" target="66zhnWMjhhO7CBgq-leG-35">
          <mxGeometry relative="1" as="geometry">
            <Array as="points">
              <mxPoint x="1400" y="510.80999999999995" />
            </Array>
          </mxGeometry>
        </mxCell>
        <mxCell id="66zhnWMjhhO7CBgq-leG-38" style="edgeStyle=orthogonalEdgeStyle;shape=connector;curved=0;rounded=1;orthogonalLoop=1;jettySize=auto;html=1;entryX=0;entryY=0.5;entryDx=0;entryDy=0;labelBackgroundColor=default;strokeColor=#DB918D;strokeWidth=3;align=center;verticalAlign=middle;fontFamily=Helvetica;fontSize=12;fontColor=#FFFFFF;endArrow=openThin;endFill=0;fillColor=#FAE5C7;" edge="1" parent="1" source="66zhnWMjhhO7CBgq-leG-32" target="66zhnWMjhhO7CBgq-leG-37">
          <mxGeometry relative="1" as="geometry">
            <Array as="points">
              <mxPoint x="1553" y="224.80999999999995" />
            </Array>
          </mxGeometry>
        </mxCell>
        <mxCell id="66zhnWMjhhO7CBgq-leG-39" value="Yes" style="text;html=1;strokeColor=none;fillColor=none;align=center;verticalAlign=middle;whiteSpace=wrap;rounded=0;fontSize=12;fontFamily=Helvetica;fontColor=#FFFFFF;container=0;" vertex="1" parent="1">
          <mxGeometry x="1521" y="330.30999999999995" width="36.25" height="20" as="geometry" />
        </mxCell>
        <mxCell id="66zhnWMjhhO7CBgq-leG-40" value="How many&amp;nbsp;&lt;br&gt;&lt;b style=&quot;font-size: 10px;&quot;&gt;optional&amp;nbsp;&lt;/b&gt;data &lt;br&gt;requirements are&lt;br style=&quot;font-size: 10px;&quot;&gt;&lt;i&gt;Coherent&lt;/i&gt;?" style="rhombus;whiteSpace=wrap;html=1;rounded=0;strokeColor=#DB918D;strokeWidth=3;align=center;verticalAlign=middle;fontFamily=Helvetica;fontSize=10;fontColor=#FFFFFF;fillColor=none;spacingTop=1;container=0;" vertex="1" parent="1">
          <mxGeometry x="1484.9699999999998" y="372.80999999999995" width="135.62" height="75" as="geometry" />
        </mxCell>
        <mxCell id="66zhnWMjhhO7CBgq-leG-41" style="edgeStyle=orthogonalEdgeStyle;shape=connector;curved=0;rounded=1;orthogonalLoop=1;jettySize=auto;html=1;labelBackgroundColor=default;strokeColor=#DB918D;strokeWidth=3;align=center;verticalAlign=middle;fontFamily=Helvetica;fontSize=12;fontColor=#FFFFFF;endArrow=openThin;endFill=0;fillColor=#FAE5C7;" edge="1" parent="1" source="66zhnWMjhhO7CBgq-leG-32" target="66zhnWMjhhO7CBgq-leG-40">
          <mxGeometry relative="1" as="geometry" />
        </mxCell>
        <mxCell id="66zhnWMjhhO7CBgq-leG-42" value="No" style="text;html=1;strokeColor=none;fillColor=none;align=center;verticalAlign=middle;whiteSpace=wrap;rounded=0;fontSize=12;fontFamily=Helvetica;fontColor=#FFFFFF;container=0;" vertex="1" parent="1">
          <mxGeometry x="1521" y="232.80999999999995" width="36.25" height="20" as="geometry" />
        </mxCell>
        <mxCell id="66zhnWMjhhO7CBgq-leG-43" value="Some" style="text;html=1;strokeColor=none;fillColor=none;align=center;verticalAlign=middle;whiteSpace=wrap;rounded=0;fontSize=12;fontFamily=Helvetica;fontColor=#FFFFFF;container=0;" vertex="1" parent="1">
          <mxGeometry x="1557.25" y="500.67999999999984" width="36.25" height="20" as="geometry" />
        </mxCell>
        <mxCell id="66zhnWMjhhO7CBgq-leG-44" value="All" style="text;html=1;strokeColor=none;fillColor=none;align=center;verticalAlign=middle;whiteSpace=wrap;rounded=0;fontSize=12;fontFamily=Helvetica;fontColor=#FFFFFF;container=0;" vertex="1" parent="1">
          <mxGeometry x="1554.25" y="465.67999999999984" width="36.25" height="20" as="geometry" />
        </mxCell>
        <mxCell id="66zhnWMjhhO7CBgq-leG-45" value="None" style="text;html=1;strokeColor=none;fillColor=none;align=center;verticalAlign=middle;whiteSpace=wrap;rounded=0;fontSize=12;fontFamily=Helvetica;fontColor=#FFFFFF;container=0;" vertex="1" parent="1">
          <mxGeometry x="1557.25" y="537.1799999999998" width="36.25" height="20" as="geometry" />
        </mxCell>
        <mxCell id="66zhnWMjhhO7CBgq-leG-46" value="Set Location to&amp;nbsp;&lt;i&gt;Coherent&lt;br&gt;&lt;/i&gt;" style="rounded=1;whiteSpace=wrap;html=1;strokeColor=#DB918D;fontColor=#FFFFFF;fillColor=none;strokeWidth=3;container=0;" vertex="1" parent="1">
          <mxGeometry x="1598.13" y="470.17999999999984" width="150" height="30" as="geometry" />
        </mxCell>
        <mxCell id="66zhnWMjhhO7CBgq-leG-47" style="edgeStyle=orthogonalEdgeStyle;shape=connector;curved=0;rounded=1;orthogonalLoop=1;jettySize=auto;html=1;exitX=0.5;exitY=1;exitDx=0;exitDy=0;entryX=0;entryY=0.5;entryDx=0;entryDy=0;labelBackgroundColor=default;strokeColor=#DB918D;strokeWidth=3;align=center;verticalAlign=middle;fontFamily=Helvetica;fontSize=12;fontColor=#FFFFFF;endArrow=openThin;endFill=0;fillColor=#FAE5C7;" edge="1" parent="1" source="66zhnWMjhhO7CBgq-leG-40" target="66zhnWMjhhO7CBgq-leG-46">
          <mxGeometry relative="1" as="geometry" />
        </mxCell>
        <mxCell id="66zhnWMjhhO7CBgq-leG-48" value="Set Location to &lt;i&gt;Degraded&lt;br&gt;&lt;/i&gt;" style="rounded=1;whiteSpace=wrap;html=1;strokeColor=#DB918D;fontColor=#FFFFFF;fillColor=none;strokeWidth=3;container=0;" vertex="1" parent="1">
          <mxGeometry x="1598.13" y="507.17999999999984" width="150" height="30" as="geometry" />
        </mxCell>
        <mxCell id="66zhnWMjhhO7CBgq-leG-49" style="edgeStyle=orthogonalEdgeStyle;shape=connector;curved=0;rounded=1;orthogonalLoop=1;jettySize=auto;html=1;exitX=0.5;exitY=1;exitDx=0;exitDy=0;entryX=0;entryY=0.5;entryDx=0;entryDy=0;labelBackgroundColor=default;strokeColor=#DB918D;strokeWidth=3;align=center;verticalAlign=middle;fontFamily=Helvetica;fontSize=12;fontColor=#FFFFFF;endArrow=openThin;endFill=0;fillColor=#FAE5C7;" edge="1" parent="1" source="66zhnWMjhhO7CBgq-leG-40" target="66zhnWMjhhO7CBgq-leG-48">
          <mxGeometry relative="1" as="geometry" />
        </mxCell>
        <mxCell id="66zhnWMjhhO7CBgq-leG-50" value="Set Location to&amp;nbsp;&lt;i&gt;Critical&lt;br&gt;&lt;/i&gt;" style="rounded=1;whiteSpace=wrap;html=1;strokeColor=#DB918D;fontColor=#FFFFFF;fillColor=none;strokeWidth=3;container=0;" vertex="1" parent="1">
          <mxGeometry x="1598.13" y="544.1799999999998" width="150" height="30" as="geometry" />
        </mxCell>
        <mxCell id="66zhnWMjhhO7CBgq-leG-51" style="edgeStyle=orthogonalEdgeStyle;shape=connector;curved=0;rounded=1;orthogonalLoop=1;jettySize=auto;html=1;exitX=0.5;exitY=1;exitDx=0;exitDy=0;entryX=0;entryY=0.5;entryDx=0;entryDy=0;labelBackgroundColor=default;strokeColor=#DB918D;strokeWidth=3;align=center;verticalAlign=middle;fontFamily=Helvetica;fontSize=12;fontColor=#FFFFFF;endArrow=openThin;endFill=0;fillColor=#FAE5C7;" edge="1" parent="1" source="66zhnWMjhhO7CBgq-leG-40" target="66zhnWMjhhO7CBgq-leG-50">
          <mxGeometry relative="1" as="geometry" />
        </mxCell>
        <mxCell id="66zhnWMjhhO7CBgq-leG-52" style="edgeStyle=orthogonalEdgeStyle;shape=connector;curved=0;rounded=1;orthogonalLoop=1;jettySize=auto;html=1;exitX=0.5;exitY=0;exitDx=0;exitDy=0;entryX=0.5;entryY=0;entryDx=0;entryDy=0;labelBackgroundColor=default;strokeColor=#DB918D;strokeWidth=3;align=center;verticalAlign=middle;fontFamily=Helvetica;fontSize=12;fontColor=#FFFFFF;endArrow=openThin;endFill=0;fillColor=#FAE5C7;" edge="1" parent="1" source="66zhnWMjhhO7CBgq-leG-53" target="66zhnWMjhhO7CBgq-leG-4">
          <mxGeometry relative="1" as="geometry">
            <Array as="points">
              <mxPoint x="1565" y="55.809999999999945" />
              <mxPoint x="1399" y="55.809999999999945" />
            </Array>
          </mxGeometry>
        </mxCell>
        <mxCell id="66zhnWMjhhO7CBgq-leG-53" value="Locations&lt;br&gt;left to check?" style="rhombus;whiteSpace=wrap;html=1;rounded=0;strokeColor=#DB918D;strokeWidth=3;align=center;verticalAlign=middle;fontFamily=Helvetica;fontSize=11;fontColor=#FFFFFF;fillColor=none;spacingTop=-3;container=0;" vertex="1" parent="1">
          <mxGeometry x="1510.48" y="77.30999999999995" width="109.03" height="55" as="geometry" />
        </mxCell>
        <mxCell id="66zhnWMjhhO7CBgq-leG-54" style="edgeStyle=orthogonalEdgeStyle;shape=connector;curved=0;rounded=1;orthogonalLoop=1;jettySize=auto;html=1;labelBackgroundColor=default;strokeColor=#DB918D;strokeWidth=3;align=center;verticalAlign=middle;fontFamily=Helvetica;fontSize=12;fontColor=#FFFFFF;endArrow=openThin;endFill=0;fillColor=#FAE5C7;exitX=1;exitY=0.5;exitDx=0;exitDy=0;entryX=0;entryY=0.5;entryDx=0;entryDy=0;" edge="1" parent="1" source="66zhnWMjhhO7CBgq-leG-4" target="66zhnWMjhhO7CBgq-leG-53">
          <mxGeometry relative="1" as="geometry">
            <Array as="points">
              <mxPoint x="1480" y="104.80999999999995" />
              <mxPoint x="1480" y="104.80999999999995" />
            </Array>
          </mxGeometry>
        </mxCell>
        <mxCell id="66zhnWMjhhO7CBgq-leG-55" style="edgeStyle=orthogonalEdgeStyle;shape=connector;curved=0;rounded=1;orthogonalLoop=1;jettySize=auto;html=1;labelBackgroundColor=default;strokeColor=#DB918D;strokeWidth=3;align=center;verticalAlign=middle;fontFamily=Helvetica;fontSize=12;fontColor=#FFFFFF;endArrow=openThin;endFill=0;fillColor=#FAE5C7;" edge="1" parent="1" source="66zhnWMjhhO7CBgq-leG-53" target="66zhnWMjhhO7CBgq-leG-6">
          <mxGeometry relative="1" as="geometry" />
        </mxCell>
        <mxCell id="66zhnWMjhhO7CBgq-leG-56" style="edgeStyle=orthogonalEdgeStyle;shape=connector;curved=0;rounded=1;orthogonalLoop=1;jettySize=auto;html=1;entryX=1;entryY=0.5;entryDx=0;entryDy=0;labelBackgroundColor=default;strokeColor=#DB918D;strokeWidth=3;align=center;verticalAlign=middle;fontFamily=Helvetica;fontSize=12;fontColor=#FFFFFF;endArrow=openThin;endFill=0;fillColor=#FAE5C7;exitX=0.5;exitY=0;exitDx=0;exitDy=0;" edge="1" parent="1" source="66zhnWMjhhO7CBgq-leG-37" target="66zhnWMjhhO7CBgq-leG-53">
          <mxGeometry relative="1" as="geometry">
            <Array as="points">
              <mxPoint x="1682" y="104.80999999999995" />
            </Array>
          </mxGeometry>
        </mxCell>
        <mxCell id="66zhnWMjhhO7CBgq-leG-57" style="edgeStyle=orthogonalEdgeStyle;shape=connector;curved=0;rounded=1;orthogonalLoop=1;jettySize=auto;html=1;entryX=0.5;entryY=1;entryDx=0;entryDy=0;labelBackgroundColor=default;strokeColor=#DB918D;strokeWidth=3;align=center;verticalAlign=middle;fontFamily=Helvetica;fontSize=12;fontColor=#FFFFFF;endArrow=openThin;endFill=0;fillColor=#FAE5C7;" edge="1" parent="1" source="66zhnWMjhhO7CBgq-leG-46" target="66zhnWMjhhO7CBgq-leG-61">
          <mxGeometry relative="1" as="geometry">
            <Array as="points">
              <mxPoint x="1765" y="484.80999999999995" />
              <mxPoint x="1765" y="435.80999999999995" />
              <mxPoint x="1682" y="435.80999999999995" />
              <mxPoint x="1682" y="382.80999999999995" />
            </Array>
          </mxGeometry>
        </mxCell>
        <mxCell id="66zhnWMjhhO7CBgq-leG-58" style="edgeStyle=orthogonalEdgeStyle;shape=connector;curved=0;rounded=1;orthogonalLoop=1;jettySize=auto;html=1;labelBackgroundColor=default;strokeColor=#DB918D;strokeWidth=3;align=center;verticalAlign=middle;fontFamily=Helvetica;fontSize=12;fontColor=#FFFFFF;endArrow=openThin;endFill=0;fillColor=#FAE5C7;entryX=0.5;entryY=1;entryDx=0;entryDy=0;" edge="1" parent="1" source="66zhnWMjhhO7CBgq-leG-48" target="66zhnWMjhhO7CBgq-leG-61">
          <mxGeometry relative="1" as="geometry">
            <mxPoint x="1625" y="182.80999999999995" as="targetPoint" />
            <Array as="points">
              <mxPoint x="1765" y="521.81" />
              <mxPoint x="1765" y="435.80999999999995" />
              <mxPoint x="1682" y="435.80999999999995" />
              <mxPoint x="1682" y="382.80999999999995" />
            </Array>
          </mxGeometry>
        </mxCell>
        <mxCell id="66zhnWMjhhO7CBgq-leG-59" style="edgeStyle=orthogonalEdgeStyle;shape=connector;curved=0;rounded=1;orthogonalLoop=1;jettySize=auto;html=1;exitX=1;exitY=0.5;exitDx=0;exitDy=0;entryX=0.5;entryY=1;entryDx=0;entryDy=0;labelBackgroundColor=default;strokeColor=#DB918D;strokeWidth=3;align=center;verticalAlign=middle;fontFamily=Helvetica;fontSize=12;fontColor=#FFFFFF;endArrow=openThin;endFill=0;fillColor=#FAE5C7;" edge="1" parent="1" source="66zhnWMjhhO7CBgq-leG-50" target="66zhnWMjhhO7CBgq-leG-61">
          <mxGeometry relative="1" as="geometry">
            <Array as="points">
              <mxPoint x="1765" y="558.81" />
              <mxPoint x="1765" y="435.80999999999995" />
              <mxPoint x="1682" y="435.80999999999995" />
              <mxPoint x="1682" y="382.80999999999995" />
            </Array>
          </mxGeometry>
        </mxCell>
        <mxCell id="66zhnWMjhhO7CBgq-leG-60" style="edgeStyle=orthogonalEdgeStyle;shape=connector;curved=0;rounded=1;orthogonalLoop=1;jettySize=auto;html=1;entryX=1;entryY=0.5;entryDx=0;entryDy=0;labelBackgroundColor=default;strokeColor=#DB918D;strokeWidth=3;align=center;verticalAlign=middle;fontFamily=Helvetica;fontSize=12;fontColor=#FFFFFF;endArrow=openThin;endFill=0;fillColor=#FAE5C7;" edge="1" parent="1" source="66zhnWMjhhO7CBgq-leG-61" target="66zhnWMjhhO7CBgq-leG-53">
          <mxGeometry relative="1" as="geometry">
            <Array as="points">
              <mxPoint x="1775" y="352.80999999999995" />
              <mxPoint x="1775" y="104.80999999999995" />
            </Array>
          </mxGeometry>
        </mxCell>
        <mxCell id="66zhnWMjhhO7CBgq-leG-61" value="Set parent location to worst status of child locations" style="rounded=1;whiteSpace=wrap;html=1;strokeColor=#DB918D;fontColor=#FFFFFF;fillColor=none;strokeWidth=3;container=0;" vertex="1" parent="1">
          <mxGeometry x="1611.26" y="322.80999999999995" width="141.87" height="60" as="geometry" />
        </mxCell>
        <mxCell id="66zhnWMjhhO7CBgq-leG-62" value="No" style="text;html=1;strokeColor=none;fillColor=none;align=center;verticalAlign=middle;whiteSpace=wrap;rounded=0;fontSize=12;fontFamily=Helvetica;fontColor=#FFFFFF;container=0;" vertex="1" parent="1">
          <mxGeometry x="1563.88" y="58.809999999999945" width="23.5" height="18.5" as="geometry" />
        </mxCell>
        <mxCell id="66zhnWMjhhO7CBgq-leG-63" value="Yes" style="text;html=1;strokeColor=none;fillColor=none;align=center;verticalAlign=middle;whiteSpace=wrap;rounded=0;fontSize=12;fontFamily=Helvetica;fontColor=#FFFFFF;container=0;" vertex="1" parent="1">
          <mxGeometry x="1527.63" y="138.80999999999995" width="36.25" height="20" as="geometry" />
        </mxCell>
        <mxCell id="66zhnWMjhhO7CBgq-leG-36" style="edgeStyle=orthogonalEdgeStyle;shape=connector;curved=0;rounded=1;orthogonalLoop=1;jettySize=auto;html=1;exitX=0.5;exitY=1;exitDx=0;exitDy=0;labelBackgroundColor=default;strokeColor=#DB918D;strokeWidth=3;align=center;verticalAlign=middle;fontFamily=Helvetica;fontSize=12;fontColor=#FFFFFF;endArrow=openThin;endFill=0;fillColor=#FAE5C7;" edge="1" parent="1" source="66zhnWMjhhO7CBgq-leG-37" target="66zhnWMjhhO7CBgq-leG-61">
          <mxGeometry relative="1" as="geometry" />
        </mxCell>
      </root>
    </mxGraphModel>
  </diagram>
</mxfile>
